
<svg viewBox="0 0 60 60" fill="none" xmlns="http://www.w3.org/2000/svg">
    <path fill-rule="evenodd" clip-rule="evenodd" d="M16.0735 46.3054C16.1939 46.0646 16.4397 45.9127 16.7088 45.9127C16.9777 45.9127 17.2237 46.0646 17.3441 46.3054C18.5603 48.738 21.0985 53.8142 21.0985 53.8142H12.3191C12.3191 53.8142 14.8571 48.738 16.0735 46.3054Z"/>
    <path fill-rule="evenodd" clip-rule="evenodd" d="M42.5882 46.3054C42.7085 46.0646 42.9543 45.9127 43.2234 45.9127C43.4924 45.9127 43.7384 46.0646 43.8587 46.3054C45.075 48.738 47.6132 53.8142 47.6132 53.8142H38.8337C38.8337 53.8142 41.3717 48.738 42.5882 46.3054Z"/>
    <path fill-rule="evenodd" clip-rule="evenodd" d="M30.6235 12.8199C30.5031 13.0606 30.2573 13.2125 29.9882 13.2125C29.7192 13.2125 29.4732 13.0606 29.3529 12.8199C28.1366 10.3872 25.5985 5.31106 25.5985 5.31106L34.3779 5.31106C34.3779 5.31106 31.8399 10.3872 30.6235 12.8199Z"/>
    <path fill-rule="evenodd" clip-rule="evenodd" d="M1.77515 54.6958C1.77515 54.6958 2.37303 54.2702 2.97426 53.8421C3.77262 53.2738 4.39979 52.4973 4.7875 51.5974C8.15297 43.7848 24.7089 5.35306 24.7089 5.35306L28.2973 14.1176C28.2973 14.1176 28.7033 15.1745 29.0053 15.9604C29.2114 16.4966 29.2033 17.0917 28.9827 17.6222C28.6638 18.3888 28.2383 19.4118 28.2383 19.4118L21.1795 35.2941L22.0031 37.0001L30.003 19.4118L32.6501 26.4706H30.8854L26.4736 35.2941L37.6502 35.2354L31.7677 19.353C31.7677 19.353 31.3777 18.3478 31.089 17.6038C30.8928 17.0984 30.8868 16.5388 31.0723 16.0292C31.3624 15.2317 31.7677 14.1176 31.7677 14.1176L35.2971 5.29412C35.2971 5.29412 51.6373 43.4818 55.0636 51.4893C55.4718 52.4432 56.1482 53.2579 57.0106 53.8348C57.6403 54.2561 58.2579 54.6692 58.2579 54.6692L54.7262 54.6471H51.2972L35.3561 14.1176C35.3561 14.1176 35.135 14.8627 34.9403 15.519C34.7517 16.1548 34.7672 16.8337 34.9846 17.4602C35.1671 17.9854 35.3561 18.5294 35.3561 18.5294L44.1207 40.5882C44.1207 40.5882 44.4651 41.5103 44.7237 42.2022C44.8982 42.6699 44.8281 43.1936 44.5366 43.5988C44.3247 43.893 44.1207 44.1766 44.1207 44.1766H15.8854C15.8854 44.1766 15.7223 43.9834 15.5335 43.7599C15.1843 43.3463 15.0858 42.7761 15.276 42.2695C15.5427 41.5597 15.8854 40.6472 15.8854 40.6472L24.7089 18.3529C24.7089 18.3529 24.8896 17.8858 25.08 17.3938C25.3606 16.6684 25.3647 15.8652 25.0915 15.1369C24.897 14.6186 24.7089 14.1176 24.7089 14.1176L8.76779 54.7059L5.29785 54.6674L1.77515 54.6958ZM24.8736 38.6465L24.3046 39.6833H34.3631L32.6451 38.6373L24.8736 38.6465Z"/>
    <style>
        path { fill: #000; }
        @media (prefers-color-scheme: dark) {
            path { fill: #FFF; }
        }
    </style>
</svg>
